<svg xmlns="http://www.w3.org/2000/svg" viewBox="15.9271 0.0000152588 420.7 452.6">
	<path d="m 428.58 371.32 c -2.344 -3.772 -128.738 -207.153 -133.259 -214.428 v -126.892 h 4.195 c 8.284 0 15 -6.716 15 -15 s -6.716 -15 -15 -15 c -6.162 0 -140.193 0 -146.453 0 c -8.284 0 -15 6.716 -15 15 s 6.716 15 15 15 h 4.196 v 126.893 c -1.421 2.286 -128.694 207.081 -133.259 214.427 c -21.979 35.367 3.516 81.261 45.174 81.261 h 314.232 c 41.64 0 67.163 -45.879 45.174 -81.261 z m -45.174 51.261 h -314.233 c -18.156 0 -29.278 -20.005 -19.693 -35.425 l 135.519 -218.064 c 1.477 -2.377 2.26 -5.12 2.26 -7.918 v -131.174 h 78.062 v 131.174 c 0 2.798 0.783 5.541 2.26 7.918 l 135.518 218.064 c 9.582 15.417 -1.532 35.425 -19.693 35.425 z" fill="#000000"/>
</svg>